<svg xmlns="http://www.w3.org/2000/svg" viewBox="0 0 32 32">
  <rect fill="#1D70B8" width="32" height="32" rx="2"/>
  <!-- Wizard hat silhouette -->
  <path fill="#fff" d="
    M16 3 C16 3 14.5 4.5 13.5 6
    L8.5 24 C8.5 24 12 23 16 23 C20 23 23.5 24 23.5 24
    L18.5 6 C17.5 4.5 16 3 16 3Z
  "/>
  <!-- Hat tip curve -->
  <path fill="#fff" d="M16 3 Q19 5 21 4 Q19 7 18.5 6" fill-opacity="0.9"/>
  <!-- Hat band -->
  <rect fill="#1D70B8" x="8" y="22.5" width="16" height="2.5" rx="1"/>
  <!-- Buckle -->
  <rect fill="#fff" x="14" y="22.5" width="4" height="2.5" rx="0.5"/>
  <rect fill="#1D70B8" x="15" y="23" width="2" height="1.5" rx="0.3"/>
  <!-- Brim -->
  <ellipse fill="#fff" cx="16" cy="26" rx="13" ry="2.5"/>
  <ellipse fill="#1D70B8" cx="16" cy="26" rx="9" ry="1.2"/>
  <!-- Star -->
  <polygon fill="#fff" points="16,11 17,14 20,14 17.5,16 18.5,19 16,17 13.5,19 14.5,16 12,14 15,14"/>
</svg>
